<?xml version="1.0" standalone="no"?>
<!DOCTYPE svg PUBLIC "-//W3C//DTD SVG 20010904//EN"
 "http://www.w3.org/TR/2001/REC-SVG-20010904/DTD/svg10.dtd">
<svg version="1.0" xmlns="http://www.w3.org/2000/svg"
 width="116.000000pt" height="128.000000pt" viewBox="0 0 116.000000 128.000000"
 preserveAspectRatio="xMidYMid meet">
<metadata>
Created by potrace 1.15, written by Peter Selinger 2001-2017
</metadata>
<g transform="translate(0.000000,128.000000) scale(0.100000,-0.100000)"
fill="#000000" stroke="none">
<path d="M977 1248 c13 -37 7 -95 -14 -130 -27 -48 -103 -95 -202 -124 -209
-63 -269 -96 -302 -167 -26 -58 -25 -138 1 -162 21 -19 21 -19 14 21 -8 53 10
115 44 152 29 30 65 44 221 82 92 23 147 48 204 93 21 16 40 27 42 25 3 -2 -6
-20 -20 -40 -26 -39 -149 -122 -232 -158 -84 -36 -87 -53 -6 -30 209 58 296
124 318 242 4 20 4 46 0 59 -7 22 -8 22 -21 -7 -12 -25 -13 -26 -8 -4 17 76
16 115 -6 143 -26 33 -45 36 -33 5z"/>
<path d="M1055 1154 c29 -69 29 -90 1 -148 -30 -60 -79 -107 -161 -150 l-50
-27 40 6 c156 23 238 81 266 187 20 73 -8 122 -80 143 -21 6 -23 5 -16 -11z"/>
<path d="M265 719 c-71 -10 -115 -29 -115 -53 0 -7 9 -25 20 -39 26 -33 150
-392 150 -434 0 -19 10 -43 24 -60 23 -26 30 -28 113 -31 115 -4 164 11 177
55 11 35 33 50 50 33 5 -5 24 -10 41 -10 16 0 37 -5 45 -11 11 -7 4 -8 -27 -4
-51 8 -84 -6 -38 -16 29 -7 29 -7 -7 -8 -20 0 -40 -5 -43 -11 -7 -11 33 -15
100 -11 52 3 149 46 139 62 -4 8 -3 9 4 5 90 -55 -298 -131 -544 -106 -213 22
-314 51 -314 93 1 20 2 20 11 4 23 -39 132 -72 202 -60 l42 7 -40 12 c-38 12
-39 13 -10 13 23 1 26 4 15 11 -8 5 -35 7 -60 5 -35 -4 -39 -3 -20 4 14 5 37
9 53 10 15 1 27 6 27 11 0 12 -17 12 -83 1 -28 -5 -44 -4 -39 1 5 5 41 12 80
15 75 6 89 16 48 34 -17 8 -43 8 -92 0 -143 -22 -188 -48 -166 -95 12 -27 105
-61 246 -91 113 -24 322 -22 446 4 184 39 240 64 240 105 0 31 -13 41 -82 61
-60 17 -138 17 -139 0 0 -5 22 -15 48 -22 l48 -12 -49 4 c-27 3 -57 5 -68 5
-17 0 -17 2 -4 28 8 15 41 48 74 74 85 66 115 108 120 171 3 42 0 57 -18 80
-30 37 -74 37 -89 0 -10 -26 -11 -26 -6 10 4 22 2 37 -5 37 -19 0 -10 17 15
28 31 14 33 47 3 63 -61 33 -199 51 -214 28 -12 -20 10 -28 94 -32 46 -3 85
-7 88 -10 3 -3 -9 -14 -28 -24 -29 -16 -58 -18 -243 -18 -217 1 -261 8 -273
45 -5 13 -3 13 11 2 9 -8 22 -10 28 -6 7 4 48 10 91 14 82 7 94 12 83 29 -7
13 -60 12 -160 0z m595 -209 c19 -35 -5 -84 -71 -144 -33 -31 -64 -56 -69 -56
-4 0 -18 -15 -30 -32 -18 -29 -20 -30 -14 -8 18 68 77 191 106 224 36 41 62
46 78 16z"/>
</g>
</svg>
